<?xml version="1.0" encoding="UTF-8" standalone="no"?>
<!-- Created with Inkscape (http://www.inkscape.org/) -->
<svg xmlns:rdf="http://www.w3.org/1999/02/22-rdf-syntax-ns#" xmlns="http://www.w3.org/2000/svg" height="32" width="32" version="1.1" xmlns:cc="http://creativecommons.org/ns#" xmlns:dc="http://purl.org/dc/elements/1.1/">
 <metadata>
  <rdf:RDF>
   <cc:Work rdf:about="">
    <dc:format>image/svg+xml</dc:format>
    <dc:type rdf:resource="http://purl.org/dc/dcmitype/StillImage"/>
    <dc:title/>
   </cc:Work>
  </rdf:RDF>
 </metadata>
 <g font-size="40px" font-weight="normal" transform="translate(0,-1020.3622)" font-family="eurostile" font-style="normal" fill="#FFF">
  <g style="word-spacing:0px;letter-spacing:0px;" fill="#000" transform="matrix(0.83166028,0,0,0.83166028,1.931475,173.98796)" line-height="125%">
   <path d="m15.317,1025.9c0.33748-0.1083,0.65247-0.5016,0.94499-1.18,0.29247-0.6783,0.45747-1.2316,0.49499-1.66-0.0067-0.4733-0.23335-0.7666-0.67999-0.8799-0.86668-0.2833-1.7533-0.5067-2.66-0.67-0.90667-0.1633-1.7933-0.2467-2.66-0.25-2.5591-0.042-4.6708,0.5417-6.3349,1.7499-1.6642,1.2084-2.5258,3.2917-2.585,6.25v0.52c0.00166,0.4258,0.018325,0.8841,0.049999,1.3749,0.031659,0.4909,0.068325,0.9792,0.11,1.465h-2.88c-0.36917,0.067-0.61083,0.4525-0.72499,1.155-0.11417,0.7025-0.16584,1.3175-0.155,1.845,0.00583,0.3425,0.11416,0.6075,0.325,0.795,0.21083,0.1875,0.48916,0.2825,0.83499,0.285h3.08c0.083324,0.585,0.15666,1.125,0.22,1.62,0.063324,0.495,0.096657,0.915,0.099999,1.2599-0.011675,1.6259-0.41834,2.9642-1.22,4.015s-1.9283,2.0191-3.38,2.9049c-0.17917,0.1509-0.31083,0.4692-0.395,0.955-0.084169,0.4859-0.12584,0.9542-0.125,1.405,0.0025,0.3633,0.077496,0.6467,0.225,0.85,0.14749,0.2033,0.35249,0.3067,0.61499,0.31h17.92c0.29247-0.072,0.48747-0.4683,0.58499-1.19,0.09748-0.7216,0.14248-1.3383,0.135-1.85-0.005-0.3266-0.09502-0.5933-0.27-0.7999-0.17502-0.2067-0.40502-0.3134-0.68999-0.32h-11.4c1.0716-0.795,1.8483-1.765,2.33-2.91,0.48165-1.145,0.71831-2.135,0.70999-2.97-0.00501-0.5041-0.045013-1.0358-0.12-1.5949-0.075013-0.5592-0.15501-1.1209-0.24-1.685h2.84c0.35164-0.066,0.58831-0.4442,0.70999-1.135,0.12165-0.6908,0.17832-1.2991,0.17-1.825-0.0067-0.3441-0.11335-0.6158-0.32-0.815-0.20668-0.1991-0.47334-0.3008-0.79999-0.305h-3.16c-0.12668-0.9666-0.19334-1.9133-0.2-2.8399v-0.52c0.039154-1.565,0.49081-2.625,1.355-3.18,0.86414-0.555,1.9058-0.815,3.125-0.78,0.75414,0.012,1.4658,0.087,2.135,0.225,0.66914,0.1375,1.3308,0.2625,1.985,0.375z"/>
   <path d="m25.098,1041.7c0.07416,0.31,0.46582,0.51,1.175,0.6,0.70915,0.09,1.2908,0.13,1.745,0.12,0.36665,0.04,0.71331,0,1.04-0.12,0.23165-0.074,0.37832-0.2358,0.43999-0.485,0.06166-0.2492,0.08832-0.5008,0.08-0.755,0.07283-1.4612,0.60714-2.752,1.6029-3.8725,0.99578-1.1205,2.016-2.2632,3.0607-3.4281s1.6768-2.5447,1.8963-4.1392c0.01832-0.3383,0.02165-0.6617,0.01-0.97-0.01168-0.3083-0.02835-0.6117-0.05-0.91-0.30002-2.5275-1.27-4.2524-2.91-5.1749s-3.71-1.3575-6.2099-1.305c-0.99,0-1.89,0.066-2.7,0.185-0.80999,0.1192-1.59,0.2708-2.34,0.455-0.59333,0.12-0.80666,0.52-0.63999,1.1999,0.08333,0.4659,0.23666,1.0142,0.45999,1.645,0.22333,0.6309,0.49666,0.9492,0.81999,0.955,0.82082-0.125,1.5691-0.235,2.245-0.33,0.67582-0.095,1.3941-0.145,2.155-0.15,1.44-0.013,2.52,0.2825,3.24,0.885,0.71998,0.6025,1.08,1.5875,1.08,2.955-0.10334,1.2508-0.69667,2.4391-1.78,3.5649-1.0833,1.1259-2.0366,2.2442-2.86,3.355-0.555,0.8483-0.955,1.7316-1.2,2.6499-0.245,0.9184-0.365,1.9417-0.36,3.07zm0,7.7999c0.07166,0.3308,0.48832,0.5492,1.25,0.655,0.76165,0.1058,1.4383,0.1542,2.03,0.145,0.59248-0.013,0.94748-0.1867,1.065-0.52,0.11749-0.3333,0.16249-0.7467,0.135-1.24v-2.7199c0.02749-0.4934-0.01751-0.9067-0.135-1.24-0.11751-0.3334-0.4725-0.5067-1.065-0.52-0.55667-0.01-1.2233,0.039-2,0.145-0.77666,0.1058-1.2033,0.3241-1.28,0.655z"/>
  </g>
  <g style="word-spacing:0px;letter-spacing:0px;" transform="matrix(0.83166028,0,0,0.83166028,1.931475,174.94146)" line-height="125%">
   <path d="m15.317,1025.9c0.33748-0.1083,0.65247-0.5016,0.94499-1.18,0.29247-0.6783,0.45747-1.2316,0.49499-1.66-0.0067-0.4733-0.23335-0.7666-0.67999-0.8799-0.86668-0.2833-1.7533-0.5067-2.66-0.67-0.90667-0.1633-1.7933-0.2467-2.66-0.25-2.5591-0.042-4.6708,0.5417-6.3349,1.7499-1.6642,1.2084-2.5258,3.2917-2.585,6.25v0.52c0.00166,0.4258,0.018325,0.8841,0.049999,1.3749,0.031659,0.4909,0.068325,0.9792,0.11,1.465h-2.88c-0.36917,0.067-0.61083,0.4525-0.72499,1.155-0.11417,0.7025-0.16584,1.3175-0.155,1.845,0.00583,0.3425,0.11416,0.6075,0.325,0.795,0.21083,0.1875,0.48916,0.2825,0.83499,0.285h3.08c0.083324,0.585,0.15666,1.125,0.22,1.62,0.063324,0.495,0.096657,0.915,0.099999,1.2599-0.011675,1.6259-0.41834,2.9642-1.22,4.015s-1.9283,2.0191-3.38,2.9049c-0.17917,0.1509-0.31083,0.4692-0.395,0.955-0.084169,0.4859-0.12584,0.9542-0.125,1.405,0.0025,0.3633,0.077496,0.6467,0.225,0.85,0.14749,0.2033,0.35249,0.3067,0.61499,0.31h17.92c0.29247-0.072,0.48747-0.4683,0.58499-1.19,0.09748-0.7216,0.14248-1.3383,0.135-1.85-0.005-0.3266-0.09502-0.5933-0.27-0.7999-0.17502-0.2067-0.40502-0.3134-0.68999-0.32h-11.4c1.0716-0.795,1.8483-1.765,2.33-2.91,0.48165-1.145,0.71831-2.135,0.70999-2.97-0.00501-0.5041-0.045013-1.0358-0.12-1.5949-0.075013-0.5592-0.15501-1.1209-0.24-1.685h2.84c0.35164-0.066,0.58831-0.4442,0.70999-1.135,0.12165-0.6908,0.17832-1.2991,0.17-1.825-0.0067-0.3441-0.11335-0.6158-0.32-0.815-0.20668-0.1991-0.47334-0.3008-0.79999-0.305h-3.16c-0.12668-0.9666-0.19334-1.9133-0.2-2.8399v-0.52c0.039154-1.565,0.49081-2.625,1.355-3.18,0.86414-0.555,1.9058-0.815,3.125-0.78,0.75414,0.012,1.4658,0.087,2.135,0.225,0.66914,0.1375,1.3308,0.2625,1.985,0.375z"/>
   <path d="m25.098,1041.7c0.07416,0.31,0.46582,0.51,1.175,0.6,0.70915,0.09,1.2908,0.13,1.745,0.12,0.36665,0.04,0.71331,0,1.04-0.12,0.23165-0.074,0.37832-0.2358,0.43999-0.485,0.06166-0.2492,0.08832-0.5008,0.08-0.755,0.07283-1.4612,0.60714-2.752,1.6029-3.8725,0.99578-1.1205,2.016-2.2632,3.0607-3.4281s1.6768-2.5447,1.8963-4.1392c0.01832-0.3383,0.02165-0.6617,0.01-0.97-0.01168-0.3083-0.02835-0.6117-0.05-0.91-0.30002-2.5275-1.27-4.2524-2.91-5.1749s-3.71-1.3575-6.2099-1.305c-0.99,0-1.89,0.066-2.7,0.185-0.80999,0.1192-1.59,0.2708-2.34,0.455-0.59333,0.12-0.80666,0.52-0.63999,1.1999,0.08333,0.4659,0.23666,1.0142,0.45999,1.645,0.22333,0.6309,0.49666,0.9492,0.81999,0.955,0.82082-0.125,1.5691-0.235,2.245-0.33,0.67582-0.095,1.3941-0.145,2.155-0.15,1.44-0.013,2.52,0.2825,3.24,0.885,0.71998,0.6025,1.08,1.5875,1.08,2.955-0.10334,1.2508-0.69667,2.4391-1.78,3.5649-1.0833,1.1259-2.0366,2.2442-2.86,3.355-0.555,0.8483-0.955,1.7316-1.2,2.6499-0.245,0.9184-0.365,1.9417-0.36,3.07zm0,7.7999c0.07166,0.3308,0.48832,0.5492,1.25,0.655,0.76165,0.1058,1.4383,0.1542,2.03,0.145,0.59248-0.013,0.94748-0.1867,1.065-0.52,0.11749-0.3333,0.16249-0.7467,0.135-1.24v-2.7199c0.02749-0.4934-0.01751-0.9067-0.135-1.24-0.11751-0.3334-0.4725-0.5067-1.065-0.52-0.55667-0.01-1.2233,0.039-2,0.145-0.77666,0.1058-1.2033,0.3241-1.28,0.655z"/>
  </g>
 </g>
</svg>
